<svg width="139" height="49" viewBox="0 0 139 49" fill="none" xmlns="http://www.w3.org/2000/svg">
<path d="M124.561 0.0268971C125.942 0.0519958 127.33 0.0144213 128.713 0C128.602 3.3513 128.66 6.75805 128.717 10.1113L133.1 5.84341C134.777 5.82275 136.455 5.82178 138.131 5.84022C136.56 7.4794 134.978 9.10707 133.383 10.723L136.712 14.8989C137.435 15.7755 138.128 16.6738 138.795 17.5926C137.042 17.6329 135.284 17.6048 133.53 17.6023C132.458 16.3704 131.486 15.0184 130.471 13.7356C129.872 14.3316 129.303 14.9628 128.722 15.5771L128.698 17.6065L124.544 17.6068C124.525 11.7535 124.456 5.87891 124.561 0.0268971Z" fill="#003D5B"/>
<path d="M84.6736 1.40417C84.6797 1.40389 84.686 1.4032 84.6921 1.4032C86.9296 1.41651 89.263 1.89768 90.9207 3.50414C90.0915 4.34723 89.2634 5.26493 88.327 5.98682C88.029 5.8042 87.7288 5.61645 87.4152 5.46114C86.2543 4.88596 84.4755 4.71941 83.229 5.15899C82.8284 5.30029 82.4317 5.51911 82.2503 5.91833C82.4302 7.10226 86.5086 7.86451 87.5985 8.27289C88.5956 8.64645 89.5782 9.13484 90.3504 9.88253C91.129 10.6366 91.6 11.594 91.5726 12.6898C91.5422 13.9086 90.9297 15.2018 90.0377 16.0354C88.3809 17.5832 85.8064 17.7796 83.6621 17.6853C81.3762 17.3906 79.3373 16.4485 77.7529 14.7556C78.5706 13.9222 79.4053 13.1057 80.2564 12.3064C81.5621 13.3981 82.7394 14.1901 84.5236 14.1901C85.3502 14.1901 86.5115 14.0816 87.102 13.4303C87.2883 13.2247 87.4015 12.9098 87.3381 12.6326C87.0909 11.5492 83.235 10.8069 82.2007 10.438C81.3291 10.1273 80.4695 9.73721 79.7246 9.18199C78.8987 8.56659 78.2237 7.76952 78.1049 6.71372C77.9785 5.59024 78.393 4.37025 79.1242 3.51621C80.5027 1.90573 82.6734 1.52162 84.6736 1.40417Z" fill="#003D5B"/>
<path d="M30.4141 5.64706C30.7699 5.6221 31.1264 5.60477 31.483 5.5952C33.3116 5.56428 35.4066 5.98457 36.749 7.31702C37.3133 7.8746 37.7043 8.58346 37.8752 9.35806C38.2267 10.9651 37.9972 15.6838 37.9898 17.6064C36.6518 17.6176 35.3137 17.6398 33.9763 17.5942C33.8056 17.3874 33.859 17.0685 33.8473 16.8027C33.6218 16.7113 32.9074 17.2456 32.6247 17.3557C32.1644 17.5351 31.6193 17.6449 31.1283 17.6892C29.5412 17.832 28.1512 17.358 26.9159 16.3584C26.4568 15.8931 26.1031 15.3304 25.9278 14.6982C25.7085 13.9067 25.8185 13.0961 26.2308 12.3865C26.8696 11.2872 28.0817 10.5715 29.2974 10.2949C30.9302 9.92327 32.457 10.2294 33.8635 11.1137C33.8788 10.5977 33.9489 9.97623 33.6655 9.51766C33.3176 8.95495 32.7611 8.64004 32.1228 8.51774C30.8981 8.28297 29.7034 8.66015 28.7108 9.37082C28.024 8.68941 27.3763 7.96848 26.7204 7.25753C27.862 6.33179 28.9876 5.93258 30.4141 5.64706ZM32.3841 15.3436C32.917 15.1694 33.4579 15.0069 33.7103 14.4581C33.909 14.0261 33.8633 13.5124 33.8651 13.0456C33.0308 12.6546 32.3523 12.489 31.4166 12.5449C30.9275 12.7228 30.3332 12.9473 30.1098 13.4676C29.9829 13.7632 29.9662 14.0536 30.0957 14.3535C30.2769 14.7735 30.7075 15.0842 31.1286 15.2311C31.5438 15.376 31.9508 15.3619 32.3841 15.3436Z" fill="#003D5B"/>
<path d="M59.8215 5.64661C60.4512 5.60515 61.0713 5.56051 61.6995 5.64926C63.2997 5.86433 64.7388 6.73418 65.673 8.0511C66.8141 9.64923 66.9966 11.4282 66.6628 13.3174C64.0553 13.3828 61.4364 13.2942 58.8262 13.3303C59.2074 13.8712 59.5585 14.2862 60.1821 14.5476C61.4453 15.0772 62.826 14.6267 64.0205 14.1351L64.5799 14.8327C64.9719 15.324 65.3215 15.8507 65.6814 16.3658C65.0031 16.8689 64.232 17.233 63.4126 17.4372C61.5373 17.9186 59.2681 17.836 57.5794 16.8155C56.2965 16.0419 55.373 14.7909 55.0113 13.3369C54.6006 11.7123 54.8413 9.91423 55.7113 8.47819C56.671 6.89407 58.0562 6.09007 59.8215 5.64661ZM58.7964 10.7928L61.2911 10.7902L63.0882 10.7896C62.776 9.99479 62.4547 9.11301 61.6127 8.73972C61.2677 8.58677 60.9217 8.56639 60.5509 8.57859C59.6822 9.00069 59.2366 9.48131 58.9159 10.3983C58.8703 10.5289 58.8331 10.6596 58.7964 10.7928Z" fill="#003D5B"/>
<path d="M99.3964 5.65499C100.228 5.56833 101.048 5.54558 101.87 5.72696C103.385 6.06309 104.703 6.99257 105.528 8.30754C106.501 9.84272 106.673 11.5734 106.292 13.3205C103.678 13.3025 101.063 13.3007 98.4487 13.3154C98.8884 13.8958 99.2678 14.3307 99.9744 14.5933C101.206 15.0513 102.531 14.6392 103.672 14.1271L104.416 15.0996C104.719 15.5195 105.049 15.9258 105.365 16.3365C104.751 16.769 104.099 17.1075 103.385 17.3428C101.576 17.9392 99.3155 17.8947 97.6056 17.0094C96.233 16.3067 95.2039 15.0778 94.7526 13.6032C94.2518 11.9421 94.4413 10.1493 95.2782 8.62953C96.1948 7.00117 97.6372 6.13811 99.3964 5.65499ZM98.4143 10.7945L101.18 10.7944L102.692 10.7906C102.463 10.0187 102.177 9.25366 101.433 8.836C101.062 8.62731 100.674 8.58682 100.256 8.57573C99.3827 8.94486 98.9843 9.38276 98.6221 10.258C98.5484 10.4351 98.479 10.614 98.4143 10.7945Z" fill="#003D5B"/>
<path d="M114.495 5.64149C115.169 5.58811 115.832 5.55094 116.503 5.65813C118.041 5.90357 119.382 6.75748 120.289 8.01866C121.452 9.63607 121.603 11.4046 121.29 13.3154C118.677 13.3001 116.054 13.2388 113.444 13.3252C113.856 13.9002 114.239 14.3245 114.914 14.582C116.161 15.057 117.507 14.6246 118.664 14.1117L119.211 14.832C119.6 15.3247 119.955 15.8485 120.319 16.3585C119.668 16.8506 118.898 17.2095 118.113 17.4269C116.259 17.9403 113.984 17.8376 112.295 16.8589C110.972 16.0984 110.016 14.8304 109.652 13.3487C109.245 11.7402 109.477 9.96194 110.323 8.53201C111.282 6.9103 112.705 6.08453 114.495 5.64149ZM113.329 10.8092L116.003 10.7948L117.671 10.7906C117.493 10.0216 117.233 9.26888 116.511 8.84775C116.082 8.59607 115.664 8.57069 115.178 8.58012C114.074 9.10026 113.769 9.70818 113.329 10.8092Z" fill="#003D5B"/>
<path d="M0.00100136 1.52576L13.2872 1.54448C13.3062 2.70456 13.2987 3.86506 13.2647 5.02487C11.7585 5.04179 10.2522 5.05025 8.74588 5.05011C8.70345 7.69435 8.73034 10.3432 8.72826 12.9879C8.74906 14.5248 8.74657 16.0619 8.72064 17.5986L4.6161 17.6048C4.48645 13.4324 4.59087 9.2248 4.59087 5.04858C3.07552 4.99505 1.54492 5.0447 0.0280424 5.05108C-0.017163 3.88045 0.0075187 2.69791 0.00100136 1.52576Z" fill="#003D5B"/>
<path d="M48.7159 5.8427C50.1905 5.82426 51.6653 5.82828 53.1398 5.8549C52.6306 7.37511 51.9341 8.85371 51.3056 10.3289L48.2138 17.6L44.8589 17.6073C43.1287 13.7302 41.4474 9.79207 39.8666 5.85171C41.3554 5.81122 42.8507 5.83715 44.3402 5.83577C45.0939 7.61112 45.8018 9.41018 46.5316 11.1958L48.7159 5.8427Z" fill="#003D5B"/>
<path d="M70.0672 0.037193L74.149 0.036499C74.2585 2.12579 74.1676 4.25903 74.1663 6.35373C74.1579 10.104 74.173 13.8543 74.2118 17.6045L70.068 17.6096L70.0672 0.037193Z" fill="#003D5B"/>
<path d="M21.5718 5.65537C22.7269 5.5375 23.6719 5.59963 24.7671 6.01577C24.2728 7.13467 23.6043 8.19976 23.0027 9.26514C22.5171 8.82279 22.043 8.52952 21.3777 8.44021C21.0377 8.39459 20.7219 8.52896 20.4743 8.75513C18.7206 10.3564 19.5553 15.2544 19.3641 17.5036C19.0966 17.6561 18.645 17.5962 18.3302 17.5987L15.3049 17.5993L15.318 5.85061C16.5521 5.8061 17.7973 5.833 19.0327 5.82745L19.4415 6.80436C20.124 6.26051 20.7518 5.93326 21.5718 5.65537Z" fill="#003D5B"/>
<path d="M9.55111 29.4522C10.6684 29.4348 11.8282 29.361 12.9405 29.4575C13.6925 29.5228 14.4254 29.7287 14.9134 30.3404C15.7391 31.3755 15.7114 33.3201 15.5497 34.5879C15.4243 35.5709 15.1516 36.2364 14.3634 36.8468L14.4551 36.9413C16.2411 38.7493 15.2847 41.6122 15.9735 44.1882C15.3316 44.2144 14.688 44.206 14.0456 44.2065C13.8291 43.1719 13.7694 42.208 13.7669 41.15C13.7663 40.3147 13.9381 38.8846 13.3098 38.2247C12.789 37.6778 12.0617 37.7535 11.3714 37.75L11.3603 44.1962C10.7635 44.2402 10.1635 44.2144 9.56568 44.2017C9.47721 42.3878 9.53739 40.5471 9.53573 38.7304C9.52255 35.6377 9.52768 32.5449 9.55111 29.4522ZM11.3853 35.9985C12.1047 35.9897 12.8146 36.0414 13.4682 35.696C13.8723 34.7842 13.9249 32.8708 13.5973 31.9398C13.5184 31.7156 13.3926 31.4917 13.1753 31.3748C12.6948 31.1164 11.8999 31.1958 11.3634 31.1975C11.3654 32.7945 11.327 34.4032 11.3853 35.9985Z" fill="#30638E"/>
<path d="M48.2289 29.4572C48.9917 29.4292 49.7567 29.4386 50.5201 29.4379C51.4331 32.5786 52.2036 35.7778 52.98 38.9549C52.9373 35.7976 52.8373 32.6119 52.9605 29.4571L54.5119 29.4497L54.5156 39.0493C54.5163 40.6884 54.6616 42.4804 54.4643 44.1019C54.1536 44.2459 53.7568 44.2095 53.4172 44.2144C53.112 44.2147 52.807 44.2509 52.5314 44.0996C52.0812 42.8907 51.8145 41.5638 51.4891 40.313C50.8866 38.0604 50.318 35.7987 49.7836 33.529C49.8309 37.0864 49.838 40.6441 49.8047 44.2018C49.275 44.2327 48.7432 44.2084 48.2129 44.1965C48.0983 39.3116 48.1191 34.342 48.2289 29.4572Z" fill="#30638E"/>
<path d="M69.8712 29.4513L72.0468 29.4495C72.736 34.3637 73.5499 39.2868 74.3625 44.1817C73.751 44.2301 73.1325 44.2302 72.5196 44.2462C72.4156 43.4684 72.3033 42.6964 72.1605 41.9249L69.5717 41.9069C69.483 42.6838 69.3585 43.4595 69.2502 44.2341C68.688 44.2481 68.1211 44.2179 67.5588 44.2039C68.3279 39.2876 69.0316 34.3555 69.8712 29.4513ZM69.8837 40.1773L70.9307 40.1612L71.9192 40.167C71.6476 38.67 71.4136 37.1664 71.2174 35.6579C71.1101 34.8399 71.06 33.9805 70.9025 33.1732C70.4294 35.434 70.1593 37.8818 69.8837 40.1773Z" fill="#30638E"/>
<path d="M58.4995 29.4511L60.3249 29.4536C60.3058 31.4801 60.3094 33.5067 60.3356 35.5332C60.327 35.7307 60.3259 35.7876 60.405 35.9766C60.6911 35.7004 60.8294 35.0968 60.9691 34.7223L63.2515 29.4479C63.828 29.4547 64.4127 29.4413 64.9876 29.4834C64.2195 31.5288 63.3252 33.5361 62.4805 35.5511C63.3593 38.4342 64.2942 41.3113 65.1125 44.2115C64.4868 44.2284 63.8613 44.2499 63.2354 44.2434C62.6054 42.0977 61.9639 39.9554 61.3112 37.8165C59.9694 40.5183 60.3357 41.3343 60.3058 44.1951C59.7044 44.2048 59.1032 44.2233 58.5023 44.1929C58.424 39.294 58.3794 34.3483 58.4995 29.4511Z" fill="#30638E"/>
<path d="M40.5771 29.5582L42.5569 29.5453C43.2486 34.3924 44.0656 39.2273 44.8122 44.0669L43.2549 44.0859C43.1461 43.3362 43.0211 42.5888 42.8801 41.8445L42.7252 41.7448L40.1202 41.7449C39.9386 42.5022 39.8591 43.3055 39.7414 44.076L38.3094 44.0782L40.5771 29.5582ZM40.339 40.3122L41.6933 40.3069C41.9883 40.3079 42.3569 40.3606 42.6229 40.2194C42.4084 38.6379 42.1384 37.0642 41.9308 35.4822C41.7887 34.3993 41.8147 32.9647 41.4439 31.947C41.1569 34.744 40.5995 37.5232 40.339 40.3122Z" fill="#30638E"/>
<path d="M2.25183 29.2526C2.52944 29.2383 2.80747 29.2318 3.0855 29.2332C3.81086 29.238 4.54247 29.4737 5.04735 30.0151C6.07043 31.1124 5.88116 32.9228 5.85814 34.3149L4.19871 34.3199C4.19885 33.6461 4.22728 32.9508 4.1585 32.2802C4.11579 31.8638 4.00999 31.389 3.64169 31.138C3.39584 30.9702 3.08675 30.9322 2.79984 30.9964C2.48701 31.0665 2.16337 31.2761 2.01596 31.5682C1.83986 31.9175 1.83181 32.3642 1.83889 32.7478C1.89047 35.555 5.04014 36.4962 5.72113 39.0682C6.0366 40.2597 6.03383 42.2247 5.37101 43.2952C4.92159 44.0211 4.23463 44.2767 3.43799 44.4528C2.52015 44.4603 1.61383 44.3991 0.922297 43.7109C-0.222397 42.5715 0.0400996 40.4403 0.0592356 38.9555L1.73405 38.9519C1.77219 39.6624 1.70258 40.3821 1.76234 41.0918C1.80907 41.6458 1.95426 42.3588 2.44306 42.7043C2.63303 42.8387 2.81759 42.8513 3.03294 42.7704C3.41636 42.6261 3.69535 42.276 3.86591 41.916C5.26963 38.9534 1.12655 37.2149 0.280963 34.6923C-0.110215 33.5254 -0.130877 31.6216 0.462062 30.515C0.860313 29.772 1.47572 29.4844 2.25183 29.2526Z" fill="#30638E"/>
<path d="M31.0478 29.4605L32.8591 29.4546C32.9419 33.7818 32.8689 38.1264 32.871 42.4554L35.7594 42.4583C35.7802 43.0331 35.7575 43.615 35.7515 44.1904C34.1879 44.2503 32.6081 44.2442 31.0435 44.2062L31.0478 29.4605Z" fill="#30638E"/>
<path d="M19.3784 29.4506L21.1935 29.452C21.1564 34.3518 21.3422 39.3001 21.1523 44.1935C20.5577 44.2197 19.9606 44.2038 19.3654 44.1995C19.3423 39.2832 19.3465 34.3669 19.3784 29.4506Z" fill="#30638E"/>
<path d="M86.6671 29.7036C86.8432 29.2287 87.1206 28.6912 87.1025 28.1797C87.0637 28.1452 87.0249 28.1113 86.9874 28.0763C86.8654 27.9617 86.7697 27.8505 86.6671 27.7179C86.8044 27.2409 87.3202 27.2312 87.5199 26.8406C87.287 26.6282 87.0401 26.4674 86.7739 26.2987L86.8294 26.2406C87.1303 26.3238 87.9664 26.4959 88.0718 26.8106C88.0898 26.8646 88.0871 26.9234 88.0954 26.9797C88.3339 26.9811 88.528 26.9359 88.7596 26.8843C89.1687 26.7926 89.3642 26.7929 89.7552 26.9524C89.0577 26.625 88.3616 26.2887 87.6489 25.996C87.6031 26.0186 87.5588 26.0453 87.5116 26.0639C87.2689 26.1604 86.5479 25.8348 86.2955 25.7048C86.0847 25.5956 85.9696 25.4818 85.8656 25.2706C85.9447 25.0429 85.989 24.9428 86.2178 24.8165C86.4758 24.6735 86.8113 24.7567 87.0637 24.8725C87.5379 25.0908 88.3741 26.0684 88.7624 26.1026C88.4323 25.6145 87.9318 25.1081 87.3618 24.9382L87.305 24.831C87.5379 24.7462 87.5934 24.7172 87.8305 24.8428C88.2049 25.0404 88.4642 25.5565 88.7707 25.8533C89.5264 26.5817 91.4442 27.7604 91.716 28.7624L91.6203 29.0368C91.8782 29.262 92.1722 29.4664 92.3136 29.7862C92.1625 29.9828 92.0959 29.9855 92.1112 30.2435L92.2166 30.2999L92.4883 30.1325C93.0083 30.5716 93.9818 31.7981 94.065 32.4782C93.8708 32.6814 93.875 32.6559 93.8709 32.9348L93.5408 32.8756L93.4451 32.9654C93.6795 33.1239 93.7627 33.2046 94.0608 33.1735C94.2286 33.156 94.4255 33.0687 94.5864 33.0132C94.9233 33.2399 95.1424 34.5132 95.2312 34.9451C95.2617 35.0888 95.2478 35.0492 95.209 35.2245L94.9885 35.086C95.1105 35.4286 95.521 35.696 95.7498 35.9945C96.1186 36.4763 96.6359 37.2319 96.8328 37.8004C96.6456 37.8147 96.5665 37.7659 96.3987 37.6933C96.5055 38.015 97.013 38.3528 97.2599 38.6128C97.3029 38.8886 97.2918 39.1313 97.4679 39.3514C98.164 40.216 98.1376 41.4407 97.9962 42.4819C97.7757 44.1175 97.2072 45.4528 95.8427 46.4646C94.6335 47.361 93.3273 47.73 91.9434 48.2504C91.4109 48.4507 90.8881 48.729 90.3321 48.8595C89.9036 48.9603 89.4377 48.9687 89.0023 48.9043C88.1952 48.7849 87.5171 48.42 87.0276 47.7593C86.6047 47.1892 86.4217 46.5075 86.2151 45.8404C85.9655 45.0346 85.6452 44.1763 85.5176 43.3419C85.1778 41.1295 85.3054 38.7928 84.7341 36.6235C84.7175 36.5581 84.7022 36.4921 84.6856 36.4265L84.6551 36.3086L84.7951 36.2067C85.017 36.1884 85.1085 36.2368 85.2638 36.0665C85.1127 34.6765 85.2388 34.1304 85.6964 32.8514C85.8143 32.5256 85.9599 32.1881 85.9876 31.8402C86.0237 31.3685 85.8878 30.8127 85.8323 30.3378C86.1083 30.1252 86.3801 29.9011 86.6671 29.7036Z" fill="#EDAE49"/>
<path d="M84.6551 36.3086C84.6357 36.2339 84.619 36.1584 84.6038 36.0829C84.4429 35.2829 84.4083 34.8218 84.8617 34.1295C84.9532 34.2172 84.7216 35.7265 84.7743 36.0813C84.7813 36.1232 84.7882 36.1649 84.7951 36.2067L84.6551 36.3086Z" fill="#EDAE49"/>
<path d="M84.3625 29.282C84.662 29.2615 84.9893 29.2331 85.2708 29.363C85.5717 29.5016 85.6438 29.7145 85.7464 29.9999C85.2888 29.7533 84.8271 29.514 84.3625 29.282Z" fill="#EDAE49"/>
</svg>
